<svg width="18" height="19" viewBox="0 0 18 19" fill="none" xmlns="http://www.w3.org/2000/svg">
<path d="M4.5 3.37512C4.5 4.20355 3.82843 4.87512 3 4.87512C2.17157 4.87512 1.5 4.20355 1.5 3.37512C1.5 2.54669 2.17157 1.87512 3 1.87512C3.82843 1.87512 4.5 2.54669 4.5 3.37512Z" stroke="#6A6A6A" stroke-width="1.5"/>
<path d="M4.5 15.3751C4.5 16.2035 3.82843 16.8751 3 16.8751C2.17157 16.8751 1.5 16.2035 1.5 15.3751C1.5 14.5467 2.17157 13.8751 3 13.8751C3.82843 13.8751 4.5 14.5467 4.5 15.3751Z" stroke="#6A6A6A" stroke-width="1.5"/>
<path d="M10.5 15.3751C10.5 16.2035 9.82843 16.8751 9 16.8751C8.17157 16.8751 7.5 16.2035 7.5 15.3751C7.5 14.5467 8.17157 13.8751 9 13.8751C9.82843 13.8751 10.5 14.5467 10.5 15.3751Z" stroke="#6A6A6A" stroke-width="1.5"/>
<path d="M10.5 3.37512C10.5 4.20355 9.82843 4.87512 9 4.87512C8.17157 4.87512 7.5 4.20355 7.5 3.37512C7.5 2.54669 8.17157 1.87512 9 1.87512C9.82843 1.87512 10.5 2.54669 10.5 3.37512Z" stroke="#6A6A6A" stroke-width="1.5"/>
<path d="M16.5 3.37512C16.5 4.20355 15.8284 4.87512 15 4.87512C14.1716 4.87512 13.5 4.20355 13.5 3.37512C13.5 2.54669 14.1716 1.87512 15 1.87512C15.8284 1.87512 16.5 2.54669 16.5 3.37512Z" stroke="#6A6A6A" stroke-width="1.5"/>
<path d="M3 4.87512V13.8751" stroke="#6A6A6A" stroke-width="1.5" stroke-linecap="round"/>
<path d="M9 4.87512V13.8751" stroke="#6A6A6A" stroke-width="1.5" stroke-linecap="round"/>
<path d="M15 4.87512V6.37512C15 7.78934 15 8.49644 14.5607 8.93578C14.1213 9.37512 13.4142 9.37512 12 9.37512H3" stroke="#6A6A6A" stroke-width="1.5" stroke-linecap="round"/>
<path d="M13.5 11.6251V10.8751C13.0858 10.8751 12.75 11.2109 12.75 11.6251H13.5ZM12.75 16.8751C12.75 17.2893 13.0858 17.6251 13.5 17.6251C13.9142 17.6251 14.25 17.2893 14.25 16.8751H12.75ZM15.8604 17.2667C16.0766 17.62 16.5384 17.731 16.8916 17.5148C17.2449 17.2985 17.3559 16.8368 17.1396 16.4835L15.8604 17.2667ZM13.5 11.6251V12.3751H15.2143V11.6251V10.8751H13.5V11.6251ZM13.5 14.2501H14.25V11.6251H13.5H12.75V14.2501H13.5ZM16.5 12.9376H15.75C15.75 13.2629 15.4956 13.5001 15.2143 13.5001V14.2501V15.0001C16.3531 15.0001 17.25 14.0621 17.25 12.9376H16.5ZM15.2143 11.6251V12.3751C15.4956 12.3751 15.75 12.6123 15.75 12.9376H16.5H17.25C17.25 11.8132 16.3531 10.8751 15.2143 10.8751V11.6251ZM15.2143 14.2501V13.5001H14.8929V14.2501V15.0001H15.2143V14.2501ZM14.8929 14.2501V13.5001H13.5V14.2501V15.0001H14.8929V14.2501ZM14.8929 14.2501L14.2532 14.6417L15.8604 17.2667L16.5 16.8751L17.1396 16.4835L15.5325 13.8585L14.8929 14.2501ZM13.5 14.2501H12.75V16.8751H13.5H14.25V14.2501H13.5Z" fill="#6A6A6A"/>
</svg>
