<svg width="40" height="40" viewBox="0 0 40 40" fill="none" xmlns="http://www.w3.org/2000/svg">
<path d="M14.5834 5.83337H15.0001V8.33337H12.0834C9.09186 8.33337 6.66675 10.7585 6.66675 13.75V28.75C6.66675 31.6014 8.8699 33.9382 11.6667 34.1509V35.4167C11.6667 36.107 12.2264 36.6667 12.9167 36.6667C13.6071 36.6667 14.1667 36.107 14.1667 35.4167V34.1667H25.8334V35.4167C25.8334 36.107 26.3931 36.6667 27.0834 36.6667C27.7737 36.6667 28.3334 36.107 28.3334 35.4167V34.1509C31.1302 33.9382 33.3334 31.6014 33.3334 28.75V13.75C33.3334 10.7585 30.9082 8.33337 27.9167 8.33337H25.0001V5.83337H25.4167C26.1071 5.83337 26.6667 5.27372 26.6667 4.58337C26.6667 3.89302 26.1071 3.33337 25.4167 3.33337H14.5834C13.8931 3.33337 13.3334 3.89302 13.3334 4.58337C13.3334 5.27372 13.8931 5.83337 14.5834 5.83337ZM17.5001 8.33337V5.83337H22.5001V8.33337H17.5001ZM12.9167 15.8334H27.0834C27.7737 15.8334 28.3334 16.393 28.3334 17.0834C28.3334 17.7737 27.7737 18.3334 27.0834 18.3334H12.9167C12.2264 18.3334 11.6667 17.7737 11.6667 17.0834C11.6667 16.393 12.2264 15.8334 12.9167 15.8334Z" fill="#2E2E2E"/>
</svg>
