<svg width="20" height="21" viewBox="0 0 20 21" fill="none" xmlns="http://www.w3.org/2000/svg">
<path d="M1.66669 10.3752C1.66669 7.23247 1.66669 5.66112 2.643 4.68481C3.61931 3.7085 5.19066 3.7085 8.33335 3.7085H11.6667C14.8094 3.7085 16.3807 3.7085 17.357 4.68481C18.3334 5.66112 18.3334 7.23247 18.3334 10.3752C18.3334 13.5179 18.3334 15.0892 17.357 16.0655C16.3807 17.0418 14.8094 17.0418 11.6667 17.0418H8.33335C5.19066 17.0418 3.61931 17.0418 2.643 16.0655C1.66669 15.0892 1.66669 13.5179 1.66669 10.3752Z" stroke="#C49D74" stroke-width="1.5"/>
<path d="M5 7.04175L6.79908 8.54098C8.32961 9.81642 9.09488 10.4541 10 10.4541C10.9051 10.4541 11.6704 9.81642 13.2009 8.54098L15 7.04175" stroke="#C49D74" stroke-width="1.5" stroke-linecap="round"/>
</svg>
