<svg width="24" height="25" viewBox="0 0 24 25" fill="none" xmlns="http://www.w3.org/2000/svg">
<path d="M4 11.3751V15.3751C4 18.675 4 20.3249 5.02513 21.35C6.05025 22.3751 7.70017 22.3751 11 22.3751H13C16.2998 22.3751 17.9497 22.3751 18.9749 21.35C20 20.3249 20 18.675 20 15.3751V11.3751" stroke="#81C62D" stroke-width="1.5" stroke-linecap="round" stroke-linejoin="round"/>
<path d="M3 9.37512C3 8.62743 3 8.25358 3.20096 7.97512C3.33261 7.7927 3.52197 7.64121 3.75 7.53589C4.09808 7.37512 4.56538 7.37512 5.5 7.37512H18.5C19.4346 7.37512 19.9019 7.37512 20.25 7.53589C20.478 7.64121 20.6674 7.7927 20.799 7.97512C21 8.25358 21 8.62743 21 9.37512C21 10.1228 21 10.4967 20.799 10.7751C20.6674 10.9575 20.478 11.109 20.25 11.2144C19.9019 11.3751 19.4346 11.3751 18.5 11.3751H5.5C4.56538 11.3751 4.09808 11.3751 3.75 11.2144C3.52197 11.109 3.33261 10.9575 3.20096 10.7751C3 10.4967 3 10.1228 3 9.37512Z" stroke="#81C62D" stroke-width="1.5" stroke-linejoin="round"/>
<path d="M6 4.16084C6 3.17461 6.79949 2.37512 7.78571 2.37512H8.14286C10.2731 2.37512 12 4.10202 12 6.23226V7.37512H9.21429C7.43908 7.37512 6 5.93604 6 4.16084Z" stroke="#81C62D" stroke-width="1.5" stroke-linejoin="round"/>
<path d="M18 4.16084C18 3.17461 17.2005 2.37512 16.2143 2.37512H15.8571C13.7269 2.37512 12 4.10202 12 6.23226V7.37512H14.7857C16.5609 7.37512 18 5.93604 18 4.16084Z" stroke="#81C62D" stroke-width="1.5" stroke-linejoin="round"/>
<path d="M12 11.3751L12 22.3751" stroke="#81C62D" stroke-width="1.5" stroke-linecap="round" stroke-linejoin="round"/>
</svg>
