<svg width="147" height="27" viewBox="0 0 147 27" fill="none" xmlns="http://www.w3.org/2000/svg">
<path d="M0 0L3.08547e-07 5.59586L3.93442 5.59586L8.11475 7.3368L12.541 5.59586L30 5.59586L30 -1.68419e-06L12.541 -7.04047e-07L8.11475 1.74093L3.93442 -2.20877e-07L0 0Z" fill="#C49D74"/>
<path d="M30 16.6632L30 22.2591L24.7746 22.2591L20.5943 24L16.168 22.2591L1.30442e-05 22.2591L1.33514e-05 16.6632L16.168 16.6632L20.5943 18.4041L24.7746 16.6632L30 16.6632Z" fill="#C49D74"/>
<path d="M0 8.3317L3.08547e-07 13.9276L9.65164 13.9276L13.832 15.6685L18.2582 13.9276L30 13.9276L30 8.3317L18.2582 8.3317L13.832 10.0726L9.65164 8.3317L0 8.3317Z" fill="#C49D74"/>
<path d="M140.984 20.216C139.896 20.216 138.92 20.024 138.056 19.64C137.192 19.24 136.504 18.704 135.992 18.032C135.496 17.36 135.224 16.616 135.176 15.8H138.56C138.624 16.312 138.872 16.736 139.304 17.072C139.752 17.408 140.304 17.576 140.96 17.576C141.6 17.576 142.096 17.448 142.448 17.192C142.816 16.936 143 16.608 143 16.208C143 15.776 142.776 15.456 142.328 15.248C141.896 15.024 141.2 14.784 140.24 14.528C139.248 14.288 138.432 14.04 137.792 13.784C137.168 13.528 136.624 13.136 136.16 12.608C135.712 12.08 135.488 11.368 135.488 10.472C135.488 9.73603 135.696 9.06403 136.112 8.45603C136.544 7.84803 137.152 7.36803 137.936 7.01603C138.736 6.66403 139.672 6.48803 140.744 6.48803C142.328 6.48803 143.592 6.88803 144.536 7.68803C145.48 8.47203 146 9.53603 146.096 10.88H142.88C142.832 10.352 142.608 9.93603 142.208 9.63203C141.824 9.31203 141.304 9.15203 140.648 9.15203C140.04 9.15203 139.568 9.26403 139.232 9.48803C138.912 9.71203 138.752 10.024 138.752 10.424C138.752 10.872 138.976 11.216 139.424 11.456C139.872 11.68 140.568 11.912 141.512 12.152C142.472 12.392 143.264 12.64 143.888 12.896C144.512 13.152 145.048 13.552 145.496 14.096C145.96 14.624 146.2 15.328 146.216 16.208C146.216 16.976 146 17.664 145.568 18.272C145.152 18.88 144.544 19.36 143.744 19.712C142.96 20.048 142.04 20.216 140.984 20.216Z" fill="white"/>
<path d="M131.233 8.76802C131.665 8.06402 132.225 7.51202 132.913 7.11202C133.617 6.71202 134.417 6.51202 135.313 6.51202V10.04H134.425C133.369 10.04 132.569 10.288 132.025 10.784C131.497 11.28 131.233 12.144 131.233 13.376V20H127.873V6.70402H131.233V8.76802Z" fill="white"/>
<path d="M112.423 13.304C112.423 11.96 112.687 10.768 113.215 9.72802C113.759 8.68802 114.487 7.88803 115.399 7.32803C116.327 6.76803 117.359 6.48803 118.495 6.48803C119.487 6.48803 120.351 6.68803 121.087 7.08803C121.839 7.48803 122.439 7.99203 122.887 8.60003V6.70403H126.271V20H122.887V18.056C122.455 18.68 121.855 19.2 121.087 19.616C120.335 20.016 119.463 20.216 118.471 20.216C117.351 20.216 116.327 19.928 115.399 19.352C114.487 18.776 113.759 17.968 113.215 16.928C112.687 15.872 112.423 14.664 112.423 13.304ZM122.887 13.352C122.887 12.536 122.727 11.84 122.407 11.264C122.087 10.672 121.655 10.224 121.111 9.92003C120.567 9.60003 119.983 9.44003 119.359 9.44003C118.735 9.44003 118.159 9.59203 117.631 9.89603C117.103 10.2 116.671 10.648 116.335 11.24C116.015 11.816 115.855 12.504 115.855 13.304C115.855 14.104 116.015 14.808 116.335 15.416C116.671 16.008 117.103 16.464 117.631 16.784C118.175 17.104 118.751 17.264 119.359 17.264C119.983 17.264 120.567 17.112 121.111 16.808C121.655 16.488 122.087 16.04 122.407 15.464C122.727 14.872 122.887 14.168 122.887 13.352Z" fill="white"/>
<path d="M99.6654 13.352C99.6654 11.976 99.9454 10.776 100.505 9.75203C101.065 8.71203 101.841 7.91203 102.833 7.35203C103.825 6.77603 104.961 6.48803 106.241 6.48803C107.889 6.48803 109.249 6.90403 110.321 7.73603C111.409 8.55203 112.137 9.70403 112.505 11.192H108.881C108.689 10.616 108.361 10.168 107.897 9.84803C107.449 9.51203 106.889 9.34403 106.217 9.34403C105.257 9.34403 104.497 9.69603 103.937 10.4C103.377 11.088 103.097 12.072 103.097 13.352C103.097 14.616 103.377 15.6 103.937 16.304C104.497 16.992 105.257 17.336 106.217 17.336C107.577 17.336 108.465 16.728 108.881 15.512H112.505C112.137 16.952 111.409 18.096 110.321 18.944C109.233 19.792 107.873 20.216 106.241 20.216C104.961 20.216 103.825 19.936 102.833 19.376C101.841 18.8 101.065 18 100.505 16.976C99.9454 15.936 99.6654 14.728 99.6654 13.352Z" fill="white"/>
<path d="M95.8663 8.76802C96.2983 8.06402 96.8583 7.51202 97.5463 7.11202C98.2503 6.71202 99.0503 6.51202 99.9463 6.51202V10.04H99.0583C98.0023 10.04 97.2023 10.288 96.6583 10.784C96.1303 11.28 95.8663 12.144 95.8663 13.376V20H92.5063V6.70402H95.8663V8.76802Z" fill="white"/>
<path d="M91.7338 13.064C91.7338 13.544 91.7018 13.976 91.6378 14.36H81.9178C81.9978 15.32 82.3338 16.072 82.9258 16.616C83.5178 17.16 84.2458 17.432 85.1098 17.432C86.3578 17.432 87.2458 16.896 87.7738 15.824H91.3978C91.0138 17.104 90.2778 18.16 89.1898 18.992C88.1018 19.808 86.7658 20.216 85.1818 20.216C83.9018 20.216 82.7498 19.936 81.7258 19.376C80.7178 18.8 79.9258 17.992 79.3498 16.952C78.7898 15.912 78.5098 14.712 78.5098 13.352C78.5098 11.976 78.7898 10.768 79.3498 9.72802C79.9098 8.68802 80.6938 7.88803 81.7018 7.32803C82.7098 6.76803 83.8698 6.48803 85.1818 6.48803C86.4458 6.48803 87.5738 6.76003 88.5658 7.30403C89.5738 7.84803 90.3498 8.62403 90.8938 9.63203C91.4538 10.624 91.7338 11.768 91.7338 13.064ZM88.2538 12.104C88.2378 11.24 87.9258 10.552 87.3178 10.04C86.7098 9.51203 85.9658 9.24803 85.0858 9.24803C84.2538 9.24803 83.5498 9.50403 82.9738 10.016C82.4138 10.512 82.0698 11.208 81.9418 12.104H88.2538Z" fill="white"/>
<path d="M68.1482 8.62402C68.5802 8.01603 69.1722 7.51203 69.9242 7.11203C70.6922 6.69603 71.5642 6.48803 72.5402 6.48803C73.6762 6.48803 74.7002 6.76803 75.6122 7.32803C76.5402 7.88803 77.2682 8.68802 77.7962 9.72802C78.3402 10.752 78.6122 11.944 78.6122 13.304C78.6122 14.664 78.3402 15.872 77.7962 16.928C77.2682 17.968 76.5402 18.776 75.6122 19.352C74.7002 19.928 73.6762 20.216 72.5402 20.216C71.5642 20.216 70.7002 20.016 69.9482 19.616C69.2122 19.216 68.6122 18.712 68.1482 18.104V26.336H64.7882V6.70403H68.1482V8.62402ZM75.1802 13.304C75.1802 12.504 75.0122 11.816 74.6762 11.24C74.3562 10.648 73.9242 10.2 73.3802 9.89603C72.8522 9.59203 72.2762 9.44003 71.6522 9.44003C71.0442 9.44003 70.4682 9.60003 69.9242 9.92003C69.3962 10.224 68.9642 10.672 68.6282 11.264C68.3082 11.856 68.1482 12.552 68.1482 13.352C68.1482 14.152 68.3082 14.848 68.6282 15.44C68.9642 16.032 69.3962 16.488 69.9242 16.808C70.4682 17.112 71.0442 17.264 71.6522 17.264C72.2762 17.264 72.8522 17.104 73.3802 16.784C73.9242 16.464 74.3562 16.008 74.6762 15.416C75.0122 14.824 75.1802 14.12 75.1802 13.304Z" fill="white"/>
<path d="M63.153 6.70403V20H59.769V18.32C59.337 18.896 58.769 19.352 58.065 19.688C57.377 20.008 56.625 20.168 55.809 20.168C54.769 20.168 53.849 19.952 53.049 19.52C52.249 19.072 51.617 18.424 51.153 17.576C50.705 16.712 50.481 15.688 50.481 14.504V6.70403H53.841V14.024C53.841 15.08 54.105 15.896 54.633 16.472C55.161 17.032 55.881 17.312 56.793 17.312C57.721 17.312 58.449 17.032 58.977 16.472C59.505 15.896 59.769 15.08 59.769 14.024V6.70403H63.153Z" fill="white"/>
<path d="M43.44 20.168C42.272 20.168 41.216 19.968 40.272 19.568C39.344 19.168 38.608 18.592 38.064 17.84C37.52 17.088 37.24 16.2 37.224 15.176H40.824C40.872 15.864 41.112 16.408 41.544 16.808C41.992 17.208 42.6 17.408 43.368 17.408C44.152 17.408 44.768 17.224 45.216 16.856C45.664 16.472 45.888 15.976 45.888 15.368C45.888 14.872 45.736 14.464 45.432 14.144C45.128 13.824 44.744 13.576 44.28 13.4C43.832 13.208 43.208 13 42.408 12.776C41.32 12.456 40.432 12.144 39.744 11.84C39.072 11.52 38.488 11.048 37.992 10.424C37.512 9.78403 37.272 8.93603 37.272 7.88003C37.272 6.88803 37.52 6.02403 38.016 5.28803C38.512 4.55203 39.208 3.99203 40.104 3.60803C41 3.20803 42.024 3.00803 43.176 3.00803C44.904 3.00803 46.304 3.43203 47.376 4.28003C48.464 5.11203 49.064 6.28003 49.176 7.78403H45.48C45.448 7.20803 45.2 6.73603 44.736 6.36803C44.288 5.98403 43.688 5.79203 42.936 5.79203C42.28 5.79203 41.752 5.96003 41.352 6.29603C40.968 6.63203 40.776 7.12003 40.776 7.76003C40.776 8.20803 40.92 8.58403 41.208 8.88803C41.512 9.17603 41.88 9.41603 42.312 9.60803C42.76 9.78403 43.384 9.99203 44.184 10.232C45.272 10.552 46.16 10.872 46.848 11.192C47.536 11.512 48.128 11.992 48.624 12.632C49.12 13.272 49.368 14.112 49.368 15.152C49.368 16.048 49.136 16.88 48.672 17.648C48.208 18.416 47.528 19.032 46.632 19.496C45.736 19.944 44.672 20.168 43.44 20.168Z" fill="white"/>
</svg>
