<svg width="18" height="19" viewBox="0 0 18 19" fill="none" xmlns="http://www.w3.org/2000/svg">
<path d="M16.5 9.37512C16.5 13.5173 13.1421 16.8751 9 16.8751C4.85786 16.8751 1.5 13.5173 1.5 9.37512C1.5 5.23299 4.85786 1.87512 9 1.87512C13.1421 1.87512 16.5 5.23299 16.5 9.37512Z" stroke="#6A6A6A" stroke-width="1.5"/>
<path d="M14.25 14.6251L13.125 13.5001" stroke="#6A6A6A" stroke-width="1.5" stroke-linecap="round"/>
<path d="M14.25 4.12512L13.125 5.25012" stroke="#6A6A6A" stroke-width="1.5" stroke-linecap="round"/>
<path d="M3.75 14.6251L4.875 13.5001" stroke="#6A6A6A" stroke-width="1.5" stroke-linecap="round"/>
<path d="M3.75 4.12512L4.875 5.25012" stroke="#6A6A6A" stroke-width="1.5" stroke-linecap="round"/>
<path d="M1.5 9.37512H3" stroke="#6A6A6A" stroke-width="1.5" stroke-linecap="round"/>
<path d="M14.9998 9.37512L16.4998 9.37512" stroke="#6A6A6A" stroke-width="1.5" stroke-linecap="round"/>
<path d="M9 3.37528L9 1.87528" stroke="#6A6A6A" stroke-width="1.5" stroke-linecap="round"/>
<path d="M7.59096 11.148C6.71228 10.2693 6.71228 8.8447 7.59096 7.96602C8.46964 7.08734 9.89426 7.08734 10.7729 7.96602C11.1072 8.30025 11.3406 8.99409 11.5016 9.7256C11.7422 10.8195 11.8626 11.3664 11.427 11.802C10.9914 12.2376 10.4444 12.1173 9.35053 11.8766C8.61903 11.7157 7.92519 11.4822 7.59096 11.148Z" stroke="#6A6A6A" stroke-width="1.5"/>
</svg>
