<svg width="18" height="18" viewBox="0 0 18 18" fill="none" xmlns="http://www.w3.org/2000/svg">
<path d="M9.00006 3.4873C5.41506 3.4873 2.49756 6.4048 2.49756 9.9898C2.49756 13.5748 5.41506 16.4998 9.00006 16.4998C12.5851 16.4998 15.5026 13.5823 15.5026 9.9973C15.5026 6.4123 12.5851 3.4873 9.00006 3.4873ZM9.56256 9.7498C9.56256 10.0573 9.30756 10.3123 9.00006 10.3123C8.69256 10.3123 8.43756 10.0573 8.43756 9.7498V5.9998C8.43756 5.6923 8.69256 5.4373 9.00006 5.4373C9.30756 5.4373 9.56256 5.6923 9.56256 5.9998V9.7498Z" fill="#2E2E2E" fill-opacity="0.4"/>
<path d="M11.1675 2.5875H6.83248C6.53248 2.5875 6.29248 2.3475 6.29248 2.0475C6.29248 1.7475 6.53248 1.5 6.83248 1.5H11.1675C11.4675 1.5 11.7075 1.74 11.7075 2.04C11.7075 2.34 11.4675 2.5875 11.1675 2.5875Z" fill="#2E2E2E" fill-opacity="0.4"/>
</svg>
