<svg width="18" height="18" viewBox="0 0 18 18" fill="none" xmlns="http://www.w3.org/2000/svg">
<path d="M7.42092 3.22471C8.5344 2.96174 9.70436 2.93006 10.8319 3.12713C13.0987 3.5165 15.1791 4.85793 16.4016 6.7538C15.2231 6.86089 14.0483 7.00473 12.8695 7.10674C12.3893 6.53393 11.7701 6.0777 11.0865 5.75644C10.2048 5.34806 9.22025 5.13262 8.24191 5.18458C7.18164 5.24382 6.12985 5.53435 5.21354 6.05933C4.54727 6.4449 3.95185 6.94326 3.45827 7.52368C2.7277 8.37435 2.224 9.40213 1.98179 10.4828C1.80355 11.2844 1.78135 12.1138 1.8721 12.9274C1.94425 13.3634 2.01312 13.8025 2.16296 14.2213C2.31247 14.6899 2.50833 15.1439 2.74859 15.5757C2.66078 15.6321 2.57493 15.6914 2.48875 15.75C1.71247 14.6715 1.22804 13.4023 1.06123 12.0986C0.843819 10.396 1.21041 8.63193 2.08102 7.13969C2.49789 6.41353 3.03619 5.75454 3.65903 5.18489C4.70951 4.22935 6.02017 3.54723 7.42092 3.22471Z" fill="#2E2E2E" fill-opacity="0.4"/>
<path d="M16.9268 7.9536C17.0117 7.94314 17.0992 7.93744 17.1821 7.96278C17.3747 8.00967 17.5148 8.20262 17.4988 8.39398C17.489 8.5261 17.4083 8.64934 17.2921 8.71777C14.9973 10.07 12.6916 11.4048 10.415 12.7852C10.0249 13.0088 9.57999 13.1584 9.1233 13.1555C8.49883 13.1571 7.88316 12.8884 7.45977 12.4449C7.17413 12.148 6.97762 11.7729 6.89731 11.3747C6.78241 10.8253 6.89274 10.2354 7.2009 9.76107C7.58675 9.15277 8.30035 8.78272 9.02864 8.74692C11.6627 8.49441 14.2934 8.21339 16.9268 7.9536Z" fill="#2E2E2E" fill-opacity="0.4"/>
</svg>
