<svg width="30" height="25" viewBox="0 0 30 25" fill="none" xmlns="http://www.w3.org/2000/svg">
<path d="M0 0.375122L3.08547e-07 5.97098L3.93442 5.97098L8.11475 7.71192L12.541 5.97098L30 5.97098L30 0.37512L12.541 0.375121L8.11475 2.11606L3.93442 0.375122L0 0.375122Z" fill="#C49D74"/>
<path d="M30 17.0383L30 22.6342L24.7746 22.6342L20.5943 24.3751L16.168 22.6342L1.30442e-05 22.6342L1.33514e-05 17.0383L16.168 17.0383L20.5943 18.7793L24.7746 17.0383L30 17.0383Z" fill="#C49D74"/>
<path d="M0 8.70679L3.08547e-07 14.3026L9.65164 14.3026L13.832 16.0436L18.2582 14.3026L30 14.3026L30 8.70679L18.2582 8.70679L13.832 10.4477L9.65164 8.70679L0 8.70679Z" fill="#C49D74"/>
</svg>
