<svg width="41" height="40" viewBox="0 0 41 40" fill="none" xmlns="http://www.w3.org/2000/svg">
<path d="M16.4095 7.33667C16.565 7.16155 16.8121 7.14191 17.0314 7.14272C19.5715 7.14682 22.1116 7.14272 24.6517 7.14436C24.8661 7.14027 25.0936 7.20246 25.2295 7.37922C25.412 7.58217 25.3784 7.87431 25.3858 8.12636C25.3735 8.89231 25.3948 9.65827 25.3776 10.4234C25.3841 10.7393 25.1288 11.038 24.8113 11.0601C24.1321 11.1018 23.4512 11.0453 22.772 11.0813C22.7548 11.511 22.7548 11.943 22.772 12.3727C24.7074 12.3948 26.6444 12.3735 28.5805 12.3825C28.8154 12.3718 29.0552 12.4619 29.1885 12.664C30.0159 13.8612 30.79 15.0977 31.6263 16.2867C32.1885 16.3547 32.7573 16.2712 33.3211 16.3219C33.6394 16.3432 33.8956 16.6427 33.8882 16.9586C33.9087 18.2663 33.8751 19.5756 33.9021 20.8841C34.3317 20.9021 34.7638 20.9013 35.1934 20.8841C35.2295 20.2049 35.173 19.5232 35.2147 18.8448C35.236 18.5265 35.5355 18.2704 35.8514 18.2785C36.7278 18.2695 37.6051 18.2695 38.4815 18.2785C38.8645 18.2646 39.1673 18.6312 39.1304 19.0036C39.1321 21.9807 39.1272 24.9569 39.1321 27.934C39.1329 28.1533 39.1116 28.3988 38.9381 28.5559C38.7368 28.7753 38.4177 28.7474 38.1484 28.7515C37.3825 28.7393 36.6165 28.7597 35.8506 28.7433C35.5347 28.7507 35.2368 28.4946 35.2147 28.1771C35.173 27.4987 35.2286 26.817 35.1934 26.1378C34.763 26.1206 34.3317 26.1198 33.9021 26.1386C33.8751 27.4463 33.9087 28.7556 33.8882 30.0641C33.898 30.3006 33.7401 30.4888 33.5805 30.6443C32.7565 31.4577 31.9422 32.281 31.1214 33.0985C30.9741 33.2605 30.7614 33.3407 30.5437 33.3301C25.9594 33.3325 21.3743 33.3284 16.79 33.3325C16.4455 33.3137 16.0274 33.4135 15.7589 33.137C14.9758 32.3661 14.2074 31.5797 13.4259 30.808C13.349 30.7122 13.2238 30.7147 13.1125 30.7106C11.5274 30.709 9.94062 30.7196 8.3547 30.7073C8.00855 30.7172 7.70086 30.4095 7.71149 30.0633C7.69185 28.5371 7.72377 27.0093 7.69758 25.4831C7.26796 25.4659 6.83588 25.4659 6.40626 25.4839C6.37025 26.1623 6.42672 26.8432 6.38498 27.5224C6.36289 27.8407 6.06338 28.0952 5.74832 28.0887C4.98319 28.105 4.21723 28.0846 3.45127 28.0969C3.18204 28.092 2.86126 28.1214 2.66159 27.9013C2.48646 27.745 2.46682 27.4987 2.46682 27.2794C2.47255 24.7393 2.46764 22.1983 2.4701 19.6583C2.43163 19.2859 2.73442 18.9193 3.11821 18.9332C3.99464 18.9242 4.87189 18.9242 5.74914 18.9332C6.0642 18.9258 6.36289 19.182 6.38498 19.5003C6.42672 20.1787 6.37025 20.8596 6.40626 21.5388C6.83588 21.556 7.26796 21.556 7.69758 21.5388C7.72377 20.0126 7.69267 18.4848 7.71149 16.9578C7.70413 16.6427 7.96027 16.3432 8.27778 16.3219C9.2786 16.2753 10.2843 16.3497 11.2835 16.2892C11.9954 15.2761 12.6616 14.2286 13.3563 13.2016C13.5486 12.9406 13.6828 12.6067 13.9783 12.443C14.2761 12.3399 14.5986 12.3915 14.9079 12.3808C16.2139 12.3759 17.5216 12.3939 18.8277 12.3727C18.8449 11.943 18.8457 11.511 18.8269 11.0813C18.1485 11.0453 17.4676 11.1018 16.7892 11.0601C16.4709 11.038 16.2139 10.7393 16.2221 10.4234C16.2058 9.65827 16.2254 8.89231 16.2139 8.12636C16.218 7.85713 16.1886 7.53634 16.4095 7.33667Z" fill="#2E2E2E"/>
</svg>
