<svg width="41" height="40" viewBox="0 0 41 40" fill="none" xmlns="http://www.w3.org/2000/svg">
<path d="M15.6 3.33337C11.2333 3.33337 7.68335 6.88337 7.68335 11.25C7.68335 15.5334 11.0333 19 15.4 19.15C15.5333 19.1334 15.6667 19.1334 15.7667 19.15C15.8 19.15 15.8167 19.15 15.85 19.15C15.8667 19.15 15.8667 19.15 15.8833 19.15C20.15 19 23.5 15.5334 23.5167 11.25C23.5167 6.88337 19.9667 3.33337 15.6 3.33337Z" fill="#2E2E2E"/>
<path d="M24.0667 23.5833C19.4167 20.4833 11.8334 20.4833 7.15003 23.5833C5.03337 25 3.8667 26.9166 3.8667 28.9666C3.8667 31.0166 5.03337 32.9166 7.13337 34.3166C9.4667 35.8833 12.5334 36.6666 15.6 36.6666C18.6667 36.6666 21.7334 35.8833 24.0667 34.3166C26.1667 32.9 27.3334 31 27.3334 28.9333C27.3167 26.8833 26.1667 24.9833 24.0667 23.5833Z" fill="#2E2E2E"/>
<path d="M33.9167 12.2333C34.1834 15.4666 31.8834 18.3 28.7 18.6833C28.6834 18.6833 28.6834 18.6833 28.6667 18.6833H28.6167C28.5167 18.6833 28.4167 18.6833 28.3334 18.7166C26.7167 18.8 25.2334 18.2833 24.1167 17.3333C25.8334 15.8 26.8167 13.5 26.6167 11C26.5 9.64996 26.0334 8.41663 25.3334 7.36663C25.9667 7.04996 26.7 6.84996 27.45 6.7833C30.7167 6.49996 33.6334 8.9333 33.9167 12.2333Z" fill="#2E2E2E"/>
<path d="M37.2501 27.6501C37.1167 29.2668 36.0834 30.6668 34.3501 31.6168C32.6834 32.5334 30.5834 32.9668 28.5001 32.9168C29.7001 31.8334 30.4001 30.4834 30.5334 29.0501C30.7001 26.9834 29.7167 25.0001 27.7501 23.4168C26.6334 22.5334 25.3334 21.8334 23.9167 21.3168C27.6001 20.2501 32.2334 20.9668 35.0834 23.2668C36.6167 24.5001 37.4001 26.0501 37.2501 27.6501Z" fill="#2E2E2E"/>
</svg>
