<svg width="325" height="84" viewBox="0 0 325 84" fill="none" xmlns="http://www.w3.org/2000/svg">
<path d="M0 53C0 52.4477 0.447715 52 1 52C1.55228 52 2 52.4477 2 53V84H0V53Z" fill="#141414" fill-opacity="0.08"/>
<path d="M3 47C3 46.4477 3.44772 46 4 46C4.55228 46 5 46.4477 5 47V84H3V47Z" fill="#141414" fill-opacity="0.08"/>
<path d="M6 29C6 28.4477 6.44772 28 7 28C7.55228 28 8 28.4477 8 29V84H6V29Z" fill="#141414" fill-opacity="0.08"/>
<path d="M9 37C9 36.4477 9.44772 36 10 36C10.5523 36 11 36.4477 11 37V84H9V37Z" fill="#141414" fill-opacity="0.08"/>
<path d="M12 29C12 28.4477 12.4477 28 13 28C13.5523 28 14 28.4477 14 29V84H12V29Z" fill="#141414" fill-opacity="0.08"/>
<path d="M15 23C15 22.4477 15.4477 22 16 22C16.5523 22 17 22.4477 17 23V84H15V23Z" fill="#141414" fill-opacity="0.08"/>
<path d="M18 23C18 22.4477 18.4477 22 19 22C19.5523 22 20 22.4477 20 23V84H18V23Z" fill="#141414" fill-opacity="0.08"/>
<path d="M21 18C21 17.4477 21.4477 17 22 17C22.5523 17 23 17.4477 23 18V84H21V18Z" fill="#141414" fill-opacity="0.08"/>
<path d="M24 23C24 22.4477 24.4477 22 25 22C25.5523 22 26 22.4477 26 23V84H24V23Z" fill="#141414" fill-opacity="0.08"/>
<path d="M27 33C27 32.4477 27.4477 32 28 32C28.5523 32 29 32.4477 29 33V84H27V33Z" fill="#141414" fill-opacity="0.08"/>
<path d="M30 42C30 41.4477 30.4477 41 31 41C31.5523 41 32 41.4477 32 42V84H30V42Z" fill="#141414" fill-opacity="0.08"/>
<path d="M33 47C33 46.4477 33.4477 46 34 46C34.5523 46 35 46.4477 35 47V84H33V47Z" fill="#141414" fill-opacity="0.08"/>
<path d="M36 37C36 36.4477 36.4477 36 37 36C37.5523 36 38 36.4477 38 37V84H36V37Z" fill="#141414" fill-opacity="0.08"/>
<path d="M39 33C39 32.4477 39.4477 32 40 32C40.5523 32 41 32.4477 41 33V84H39V33Z" fill="#141414" fill-opacity="0.08"/>
<path d="M42 26C42 25.4477 42.4477 25 43 25C43.5523 25 44 25.4477 44 26V84H42V26Z" fill="#141414" fill-opacity="0.08"/>
<path d="M45 18C45 17.4477 45.4477 17 46 17C46.5523 17 47 17.4477 47 18V84H45V18Z" fill="#141414" fill-opacity="0.08"/>
<path d="M48 13C48 12.4477 48.4477 12 49 12C49.5523 12 50 12.4477 50 13V84H48V13Z" fill="#141414" fill-opacity="0.08"/>
<path d="M51 10C51 9.44771 51.4477 9 52 9C52.5523 9 53 9.44772 53 10V84H51V10Z" fill="#141414" fill-opacity="0.08"/>
<path d="M54 6C54 5.44772 54.4477 5 55 5C55.5523 5 56 5.44772 56 6V84H54V6Z" fill="#141414" fill-opacity="0.08"/>
<path d="M57 1C57 0.447716 57.4477 0 58 0C58.5523 0 59 0.447715 59 1V84H57V1Z" fill="#141414" fill-opacity="0.08"/>
<path d="M60 6C60 5.44772 60.4477 5 61 5C61.5523 5 62 5.44772 62 6V84H60V6Z" fill="#141414" fill-opacity="0.08"/>
<path d="M63 13C63 12.4477 63.4477 12 64 12C64.5523 12 65 12.4477 65 13V84H63V13Z" fill="#141414" fill-opacity="0.08"/>
<path d="M66 18C66 17.4477 66.4477 17 67 17C67.5523 17 68 17.4477 68 18V84H66V18Z" fill="#141414" fill-opacity="0.08"/>
<path d="M69 29C69 28.4477 69.4477 28 70 28C70.5523 28 71 28.4477 71 29V84H69V29Z" fill="#141414" fill-opacity="0.08"/>
<path d="M72 37C72 36.4477 72.4477 36 73 36C73.5523 36 74 36.4477 74 37V84H72V37Z" fill="#141414" fill-opacity="0.08"/>
<path d="M75 42C75 41.4477 75.4477 41 76 41C76.5523 41 77 41.4477 77 42V84H75V42Z" fill="#141414" fill-opacity="0.08"/>
<path d="M78 47C78 46.4477 78.4477 46 79 46C79.5523 46 80 46.4477 80 47V84H78V47Z" fill="#141414" fill-opacity="0.08"/>
<path d="M81 42C81 41.4477 81.4477 41 82 41C82.5523 41 83 41.4477 83 42V84H81V42Z" fill="#141414" fill-opacity="0.08"/>
<path d="M84 56C84 55.4477 84.4477 55 85 55C85.5523 55 86 55.4477 86 56V84H84V56Z" fill="#141414" fill-opacity="0.08"/>
<path d="M87 53C87 52.4477 87.4477 52 88 52C88.5523 52 89 52.4477 89 53V84H87V53Z" fill="#141414" fill-opacity="0.08"/>
<path d="M90 29C90 28.4477 90.4477 28 91 28C91.5523 28 92 28.4477 92 29V84H90V29Z" fill="#141414" fill-opacity="0.08"/>
<path d="M93 58C93 57.4477 93.4477 57 94 57C94.5523 57 95 57.4477 95 58V84H93V58Z" fill="#141414" fill-opacity="0.08"/>
<path d="M96 64C96 63.4477 96.4477 63 97 63C97.5523 63 98 63.4477 98 64V84H96V64Z" fill="#141414" fill-opacity="0.08"/>
<path d="M99 68C99 67.4477 99.4477 67 100 67C100.552 67 101 67.4477 101 68V84H99V68Z" fill="#141414" fill-opacity="0.08"/>
<path d="M102 71C102 70.4477 102.448 70 103 70C103.552 70 104 70.4477 104 71V84H102V71Z" fill="#141414" fill-opacity="0.08"/>
<path d="M105 73C105 72.4477 105.448 72 106 72C106.552 72 107 72.4477 107 73V84H105V73Z" fill="#141414" fill-opacity="0.08"/>
<path d="M108 68C108 67.4477 108.448 67 109 67C109.552 67 110 67.4477 110 68V84H108V68Z" fill="#141414" fill-opacity="0.08"/>
<path d="M111 50C111 49.4477 111.448 49 112 49C112.552 49 113 49.4477 113 50V84H111V50Z" fill="#141414" fill-opacity="0.08"/>
<path d="M114 58C114 57.4477 114.448 57 115 57C115.552 57 116 57.4477 116 58V84H114V58Z" fill="#141414" fill-opacity="0.08"/>
<path d="M117 56C117 55.4477 117.448 55 118 55C118.552 55 119 55.4477 119 56V84H117V56Z" fill="#141414" fill-opacity="0.08"/>
<path d="M120 61C120 60.4477 120.448 60 121 60C121.552 60 122 60.4477 122 61V84H120V61Z" fill="#141414" fill-opacity="0.08"/>
<path d="M123 56C123 55.4477 123.448 55 124 55C124.552 55 125 55.4477 125 56V84H123V56Z" fill="#141414" fill-opacity="0.08"/>
<path d="M126 68C126 67.4477 126.448 67 127 67C127.552 67 128 67.4477 128 68V84H126V68Z" fill="#141414" fill-opacity="0.08"/>
<path d="M129 58C129 57.4477 129.448 57 130 57C130.552 57 131 57.4477 131 58V84H129V58Z" fill="#141414" fill-opacity="0.08"/>
<path d="M132 61C132 60.4477 132.448 60 133 60C133.552 60 134 60.4477 134 61V84H132V61Z" fill="#141414" fill-opacity="0.08"/>
<path d="M135 44C135 43.4477 135.448 43 136 43C136.552 43 137 43.4477 137 44V84H135V44Z" fill="#141414" fill-opacity="0.08"/>
<path d="M138 58C138 57.4477 138.448 57 139 57C139.552 57 140 57.4477 140 58V84H138V58Z" fill="#141414" fill-opacity="0.08"/>
<path d="M141 64C141 63.4477 141.448 63 142 63C142.552 63 143 63.4477 143 64V84H141V64Z" fill="#141414" fill-opacity="0.08"/>
<path d="M144 64C144 63.4477 144.448 63 145 63C145.552 63 146 63.4477 146 64V84H144V64Z" fill="#141414" fill-opacity="0.08"/>
<path d="M147 66C147 65.4477 147.448 65 148 65C148.552 65 149 65.4477 149 66V84H147V66Z" fill="#141414" fill-opacity="0.08"/>
<path d="M150 68C150 67.4477 150.448 67 151 67C151.552 67 152 67.4477 152 68V84H150V68Z" fill="#141414" fill-opacity="0.08"/>
<path d="M153 69C153 68.4477 153.448 68 154 68C154.552 68 155 68.4477 155 69V84H153V69Z" fill="#141414" fill-opacity="0.08"/>
<path d="M156 71C156 70.4477 156.448 70 157 70C157.552 70 158 70.4477 158 71V84H156V71Z" fill="#141414" fill-opacity="0.08"/>
<path d="M159 73C159 72.4477 159.448 72 160 72C160.552 72 161 72.4477 161 73V84H159V73Z" fill="#141414" fill-opacity="0.08"/>
<path d="M162 69C162 68.4477 162.448 68 163 68C163.552 68 164 68.4477 164 69V84H162V69Z" fill="#141414" fill-opacity="0.08"/>
<path d="M165 74C165 73.4477 165.448 73 166 73C166.552 73 167 73.4477 167 74V84H165V74Z" fill="#141414" fill-opacity="0.08"/>
<path d="M168 76C168 75.4477 168.448 75 169 75C169.552 75 170 75.4477 170 76V84H168V76Z" fill="#141414" fill-opacity="0.08"/>
<path d="M171 78C171 77.4477 171.448 77 172 77C172.552 77 173 77.4477 173 78V84H171V78Z" fill="#141414" fill-opacity="0.08"/>
<path d="M174 66C174 65.4477 174.448 65 175 65C175.552 65 176 65.4477 176 66V84H174V66Z" fill="#141414" fill-opacity="0.08"/>
<path d="M177 63C177 62.4477 177.448 62 178 62C178.552 62 179 62.4477 179 63V84H177V63Z" fill="#141414" fill-opacity="0.08"/>
<path d="M180 59C180 58.4477 180.448 58 181 58C181.552 58 182 58.4477 182 59V84H180V59Z" fill="#141414" fill-opacity="0.08"/>
<path d="M183 55C183 54.4477 183.448 54 184 54C184.552 54 185 54.4477 185 55V84H183V55Z" fill="#141414" fill-opacity="0.08"/>
<path d="M186 50C186 49.4477 186.448 49 187 49C187.552 49 188 49.4477 188 50V84H186V50Z" fill="#141414" fill-opacity="0.08"/>
<path d="M189 60C189 59.4477 189.448 59 190 59C190.552 59 191 59.4477 191 60V84H189V60Z" fill="#141414" fill-opacity="0.08"/>
<path d="M192 63C192 62.4477 192.448 62 193 62C193.552 62 194 62.4477 194 63V84H192V63Z" fill="#141414" fill-opacity="0.08"/>
<path d="M195 58C195 57.4477 195.448 57 196 57C196.552 57 197 57.4477 197 58V84H195V58Z" fill="#141414" fill-opacity="0.08"/>
<path d="M198 73C198 72.4477 198.448 72 199 72C199.552 72 200 72.4477 200 73V84H198V73Z" fill="#141414" fill-opacity="0.08"/>
<path d="M201 76C201 75.4477 201.448 75 202 75C202.552 75 203 75.4477 203 76V84H201V76Z" fill="#141414" fill-opacity="0.08"/>
<path d="M204 78C204 77.4477 204.448 77 205 77C205.552 77 206 77.4477 206 78V84H204V78Z" fill="#141414" fill-opacity="0.08"/>
<path d="M207 73C207 72.4477 207.448 72 208 72C208.552 72 209 72.4477 209 73V84H207V73Z" fill="#141414" fill-opacity="0.08"/>
<path d="M210 68C210 67.4477 210.448 67 211 67C211.552 67 212 67.4477 212 68V84H210V68Z" fill="#141414" fill-opacity="0.08"/>
<path d="M213 63C213 62.4477 213.448 62 214 62C214.552 62 215 62.4477 215 63V84H213V63Z" fill="#141414" fill-opacity="0.08"/>
<path d="M216 68C216 67.4477 216.448 67 217 67C217.552 67 218 67.4477 218 68V84H216V68Z" fill="#141414" fill-opacity="0.08"/>
<path d="M219 58C219 57.4477 219.448 57 220 57C220.552 57 221 57.4477 221 58V84H219V58Z" fill="#141414" fill-opacity="0.08"/>
<path d="M222 67C222 66.4477 222.448 66 223 66C223.552 66 224 66.4477 224 67V84H222V67Z" fill="#141414" fill-opacity="0.08"/>
<path d="M225 72C225 71.4477 225.448 71 226 71C226.552 71 227 71.4477 227 72V84H225V72Z" fill="#141414" fill-opacity="0.08"/>
<path d="M228 74C228 73.4477 228.448 73 229 73C229.552 73 230 73.4477 230 74V84H228V74Z" fill="#141414" fill-opacity="0.08"/>
<path d="M231 74C231 73.4477 231.448 73 232 73C232.552 73 233 73.4477 233 74V84H231V74Z" fill="#141414" fill-opacity="0.08"/>
<path d="M234 66C234 65.4477 234.448 65 235 65C235.552 65 236 65.4477 236 66V84H234V66Z" fill="#141414" fill-opacity="0.08"/>
<path d="M237 63C237 62.4477 237.448 62 238 62C238.552 62 239 62.4477 239 63V84H237V63Z" fill="#141414" fill-opacity="0.08"/>
<path d="M240 59C240 58.4477 240.448 58 241 58C241.552 58 242 58.4477 242 59V84H240V59Z" fill="#141414" fill-opacity="0.08"/>
<path d="M243 55C243 54.4477 243.448 54 244 54C244.552 54 245 54.4477 245 55V84H243V55Z" fill="#141414" fill-opacity="0.08"/>
<path d="M246 50C246 49.4477 246.448 49 247 49C247.552 49 248 49.4477 248 50V84H246V50Z" fill="#141414" fill-opacity="0.08"/>
<path d="M249 66C249 65.4477 249.448 65 250 65C250.552 65 251 65.4477 251 66V84H249V66Z" fill="#141414" fill-opacity="0.08"/>
<path d="M252 60C252 59.4477 252.448 59 253 59C253.552 59 254 59.4477 254 60V84H252V60Z" fill="#141414" fill-opacity="0.08"/>
<path d="M255 63C255 62.4477 255.448 62 256 62C256.552 62 257 62.4477 257 63V84H255V63Z" fill="#141414" fill-opacity="0.08"/>
<path d="M258 63C258 62.4477 258.448 62 259 62C259.552 62 260 62.4477 260 63V84H258V63Z" fill="#141414" fill-opacity="0.08"/>
<path d="M261 59C261 58.4477 261.448 58 262 58C262.552 58 263 58.4477 263 59V84H261V59Z" fill="#141414" fill-opacity="0.08"/>
<path d="M264 58C264 57.4477 264.448 57 265 57C265.552 57 266 57.4477 266 58V84H264V58Z" fill="#141414" fill-opacity="0.08"/>
<path d="M267 55C267 54.4477 267.448 54 268 54C268.552 54 269 54.4477 269 55V84H267V55Z" fill="#141414" fill-opacity="0.08"/>
<path d="M270 73C270 72.4477 270.448 72 271 72C271.552 72 272 72.4477 272 73V84H270V73Z" fill="#141414" fill-opacity="0.08"/>
<path d="M273 50C273 49.4477 273.448 49 274 49C274.552 49 275 49.4477 275 50V84H273V50Z" fill="#141414" fill-opacity="0.08"/>
<path d="M276 76C276 75.4477 276.448 75 277 75C277.552 75 278 75.4477 278 76V84H276V76Z" fill="#141414" fill-opacity="0.08"/>
<path d="M279 60C279 59.4477 279.448 59 280 59C280.552 59 281 59.4477 281 60V84H279V60Z" fill="#141414" fill-opacity="0.08"/>
<path d="M282 66C282 65.4477 282.448 65 283 65C283.552 65 284 65.4477 284 66V84H282V66Z" fill="#141414" fill-opacity="0.08"/>
<path d="M285 63C285 62.4477 285.448 62 286 62C286.552 62 287 62.4477 287 63V84H285V63Z" fill="#141414" fill-opacity="0.08"/>
<path d="M288 63C288 62.4477 288.448 62 289 62C289.552 62 290 62.4477 290 63V84H288V63Z" fill="#141414" fill-opacity="0.08"/>
<path d="M291 58C291 57.4477 291.448 57 292 57C292.552 57 293 57.4477 293 58V84H291V58Z" fill="#141414" fill-opacity="0.08"/>
<path d="M294 59C294 58.4477 294.448 58 295 58C295.552 58 296 58.4477 296 59V84H294V59Z" fill="#141414" fill-opacity="0.08"/>
<path d="M297 73C297 72.4477 297.448 72 298 72C298.552 72 299 72.4477 299 73V84H297V73Z" fill="#141414" fill-opacity="0.08"/>
<path d="M300 55C300 54.4477 300.448 54 301 54C301.552 54 302 54.4477 302 55V84H300V55Z" fill="#141414" fill-opacity="0.08"/>
<path d="M303 76C303 75.4477 303.448 75 304 75C304.552 75 305 75.4477 305 76V84H303V76Z" fill="#141414" fill-opacity="0.08"/>
<path d="M306 50C306 49.4477 306.448 49 307 49C307.552 49 308 49.4477 308 50V84H306V50Z" fill="#141414" fill-opacity="0.08"/>
<path d="M309 60C309 59.4477 309.448 59 310 59C310.552 59 311 59.4477 311 60V84H309V60Z" fill="#141414" fill-opacity="0.08"/>
<path d="M312 63C312 62.4477 312.448 62 313 62C313.552 62 314 62.4477 314 63V84H312V63Z" fill="#141414" fill-opacity="0.08"/>
<path d="M315 58C315 57.4477 315.448 57 316 57C316.552 57 317 57.4477 317 58V84H315V58Z" fill="#141414" fill-opacity="0.08"/>
<path d="M318 73C318 72.4477 318.448 72 319 72C319.552 72 320 72.4477 320 73V84H318V73Z" fill="#141414" fill-opacity="0.08"/>
<path d="M321 76C321 75.4477 321.448 75 322 75C322.552 75 323 75.4477 323 76V84H321V76Z" fill="#141414" fill-opacity="0.08"/>
</svg>
