<svg width="18" height="19" viewBox="0 0 18 19" fill="none" xmlns="http://www.w3.org/2000/svg">
<path d="M6.86998 8.52762C6.79498 8.52012 6.70498 8.52012 6.62248 8.52762C4.83748 8.46762 3.41998 7.00512 3.41998 5.20512C3.41998 3.36762 4.90498 1.87512 6.74998 1.87512C8.58748 1.87512 10.08 3.36762 10.08 5.20512C10.0725 7.00512 8.65498 8.46762 6.86998 8.52762Z" stroke="#6A6A6A" stroke-width="1.5" stroke-linecap="round" stroke-linejoin="round"/>
<path d="M12.3075 3.37512C13.7625 3.37512 14.9325 4.55262 14.9325 6.00012C14.9325 7.41762 13.8075 8.57262 12.405 8.62512C12.345 8.61762 12.2775 8.61762 12.21 8.62512" stroke="#6A6A6A" stroke-width="1.5" stroke-linecap="round" stroke-linejoin="round"/>
<path d="M3.11998 11.2951C1.30498 12.5101 1.30498 14.4901 3.11998 15.6976C5.18248 17.0776 8.56498 17.0776 10.6275 15.6976C12.4425 14.4826 12.4425 12.5026 10.6275 11.2951C8.57248 9.92262 5.18998 9.92262 3.11998 11.2951Z" stroke="#6A6A6A" stroke-width="1.5" stroke-linecap="round" stroke-linejoin="round"/>
<path d="M13.755 15.3751C14.295 15.2626 14.805 15.0451 15.225 14.7226C16.395 13.8451 16.395 12.3976 15.225 11.5201C14.8125 11.2051 14.31 10.9951 13.7775 10.8751" stroke="#6A6A6A" stroke-width="1.5" stroke-linecap="round" stroke-linejoin="round"/>
</svg>
