<svg width="41" height="40" viewBox="0 0 41 40" fill="none" xmlns="http://www.w3.org/2000/svg">
<path d="M16.1354 7.16598C18.6098 6.58161 21.2097 6.51121 23.7153 6.94913C28.7527 7.81441 33.3758 10.7954 36.0925 15.0084C33.4737 15.2464 30.8629 15.566 28.2434 15.7927C27.1763 14.5198 25.8002 13.506 24.2812 12.7921C22.3218 11.8845 20.1339 11.4058 17.9598 11.5212C15.6037 11.6529 13.2664 12.2985 11.2301 13.4651C9.74953 14.322 8.42636 15.4294 7.32953 16.7193C5.70603 18.6096 4.58671 20.8936 4.04845 23.2951C3.65237 25.0763 3.60304 26.9196 3.80471 28.7276C3.96502 29.6963 4.11809 30.6722 4.45106 31.6029C4.7833 32.6442 5.21855 33.6531 5.75246 34.6127C5.55732 34.7381 5.36654 34.8697 5.17503 35C3.44998 32.6034 2.37345 29.7829 2.00276 26.8858C1.51963 23.1022 2.33428 19.182 4.26898 15.8659C5.19534 14.2523 6.39156 12.7878 7.77566 11.5219C10.1101 9.39852 13.0226 7.8827 16.1354 7.16598Z" fill="#2E2E2E"/>
<path d="M37.2597 17.6746C37.4483 17.6514 37.6427 17.6387 37.8269 17.695C38.2549 17.7992 38.5661 18.228 38.5306 18.6533C38.5088 18.9468 38.3297 19.2207 38.0714 19.3728C32.9717 22.3777 27.8481 25.3439 22.789 28.4114C21.9221 28.9085 20.9333 29.2408 19.9185 29.2344C18.5308 29.238 17.1626 28.6409 16.2217 27.6553C15.587 26.9956 15.1503 26.162 14.9718 25.277C14.7165 24.0561 14.9617 22.7452 15.6465 21.6912C16.5039 20.3395 18.0897 19.5171 19.7081 19.4376C25.5615 18.8764 31.4077 18.2519 37.2597 17.6746Z" fill="#2E2E2E"/>
</svg>
