<svg width="40" height="40" viewBox="0 0 40 40" fill="none" xmlns="http://www.w3.org/2000/svg">
<path d="M20 7.75C12.0334 7.75 5.55005 14.2333 5.55005 22.2C5.55005 30.1667 12.0334 36.6667 20 36.6667C27.9667 36.6667 34.45 30.1833 34.45 22.2167C34.45 14.25 27.9667 7.75 20 7.75ZM21.25 21.6667C21.25 22.35 20.6834 22.9167 20 22.9167C19.3167 22.9167 18.75 22.35 18.75 21.6667V13.3333C18.75 12.65 19.3167 12.0833 20 12.0833C20.6834 12.0833 21.25 12.65 21.25 13.3333V21.6667Z" fill="#2E2E2E"/>
<path d="M24.8167 5.75004H15.1834C14.5167 5.75004 13.9834 5.21671 13.9834 4.55004C13.9834 3.88337 14.5167 3.33337 15.1834 3.33337H24.8167C25.4834 3.33337 26.0167 3.86671 26.0167 4.53337C26.0167 5.20004 25.4834 5.75004 24.8167 5.75004Z" fill="#2E2E2E"/>
</svg>
