<svg width="41" height="40" viewBox="0 0 41 40" fill="none" xmlns="http://www.w3.org/2000/svg">
<path d="M7.22158 5.79906C8.1061 5.18426 9.23098 4.93035 10.2941 5.10741C11.4257 5.28296 12.467 5.95125 13.1059 6.90057C13.7621 7.85743 13.9919 9.0923 13.7252 10.2209C13.3831 11.7798 12.0804 13.0599 10.5216 13.3914C10.5216 15.5771 10.5216 17.7628 10.5216 19.9485C13.7862 19.9485 17.0516 19.9485 20.3162 19.9485C20.3162 17.7628 20.3162 15.5771 20.3162 13.3914C19.3013 13.1646 18.3761 12.5573 17.7786 11.7052C17.1518 10.8274 16.8843 9.70408 17.0516 8.63873C17.2286 7.38879 18.0122 6.24659 19.1069 5.62049C19.9417 5.13378 20.9468 4.94919 21.8999 5.10816C23.0285 5.28371 24.066 5.94974 24.7049 6.89454C25.3785 7.8725 25.6045 9.14203 25.3107 10.2925C24.9468 11.8205 23.6584 13.0644 22.1244 13.3914C22.1244 15.5771 22.1244 17.7628 22.1244 19.9485C25.389 19.9485 28.6544 19.9485 31.919 19.9485C31.919 17.7628 31.919 15.5763 31.919 13.3906C30.7851 13.2249 29.7296 12.5822 29.0756 11.6396C28.3463 10.6195 28.1202 9.2671 28.4676 8.06387C28.8533 6.64893 30.037 5.49693 31.4557 5.13528C32.0448 4.9635 32.6619 5.00645 33.2669 5.00117C34.4053 5.03282 35.5151 5.5572 36.2693 6.40858C36.9964 7.21776 37.3859 8.31702 37.3332 9.40271C37.2895 10.4869 36.8035 11.5447 36.0109 12.2853C35.3878 12.879 34.5764 13.261 33.7273 13.3906C33.7265 15.8536 33.728 18.3165 33.7273 20.7788C33.7446 21.1125 33.5811 21.4531 33.2903 21.6241C33.0394 21.7868 32.7297 21.7544 32.4464 21.7575C29.0055 21.756 25.5653 21.7567 22.1244 21.7567C22.1244 23.9424 22.1244 26.1281 22.1244 28.3138C23.2824 28.5662 24.3162 29.3272 24.8933 30.3624C25.4297 31.3049 25.5774 32.4584 25.2986 33.5065C25.0221 34.5808 24.2973 35.5309 23.3352 36.0832C22.2924 36.6972 20.9777 36.8223 19.8378 36.4177C18.8658 36.0847 18.0288 35.3802 17.5323 34.4814C16.9717 33.4823 16.8497 32.2497 17.2 31.1595C17.6347 29.7446 18.8704 28.6257 20.3162 28.3138C20.3162 26.1281 20.3162 23.9424 20.3162 21.7567C17.0516 21.7567 13.7862 21.7567 10.5216 21.7567C10.5216 23.9424 10.5216 26.1281 10.5216 28.3138C11.6789 28.5655 12.7118 29.3257 13.289 30.3601C13.8269 31.3042 13.9746 32.4592 13.695 33.508C13.4185 34.5823 12.6937 35.5309 11.7324 36.0839C10.6836 36.7002 9.36057 36.8231 8.2161 36.4109C7.19747 36.0576 6.32952 35.2928 5.84883 34.3277C5.33649 33.3181 5.25889 32.0983 5.64013 31.0314C6.1065 29.6745 7.31274 28.6174 8.71337 28.3146C8.71337 23.3397 8.71337 18.3655 8.71337 13.3914C7.6985 13.1646 6.77329 12.5581 6.17582 11.7052C5.54972 10.829 5.28225 9.7071 5.448 8.6425C5.60999 7.50256 6.27301 6.45002 7.22158 5.79906Z" fill="#2E2E2E"/>
</svg>
